<?xml version="1.0" encoding="UTF-8" standalone="no"?>
<!-- Created with Inkscape (http://www.inkscape.org/) -->

<svg
   width="210mm"
   height="297mm"
   viewBox="0 0 210 297"
   version="1.1"
   id="svg5"
   inkscape:version="1.2.2 (732a01da63, 2022-12-09)"
   sodipodi:docname="los_aros_esos_raros_xd_v3.svg"
   xmlns:inkscape="http://www.inkscape.org/namespaces/inkscape"
   xmlns:sodipodi="http://sodipodi.sourceforge.net/DTD/sodipodi-0.dtd"
   xmlns="http://www.w3.org/2000/svg"
   xmlns:svg="http://www.w3.org/2000/svg">
  <sodipodi:namedview
     id="namedview7"
     pagecolor="#ffffff"
     bordercolor="#000000"
     borderopacity="0.25"
     inkscape:showpageshadow="2"
     inkscape:pageopacity="0.0"
     inkscape:pagecheckerboard="0"
     inkscape:deskcolor="#d1d1d1"
     inkscape:document-units="mm"
     showgrid="false"
     inkscape:zoom="0.4665165"
     inkscape:cx="321.53204"
     inkscape:cy="555.17865"
     inkscape:window-width="1366"
     inkscape:window-height="745"
     inkscape:window-x="-8"
     inkscape:window-y="-8"
     inkscape:window-maximized="1"
     inkscape:current-layer="layer1" />
  <defs
     id="defs2" />
  <g
     inkscape:label="Layer 1"
     inkscape:groupmode="layer"
     id="layer1">
    <g
       id="g4192"
       transform="translate(-11.156986,-35.330456)">
      <path
         id="path234"
         style="fill:#667fff;fill-opacity:1;stroke:#000000;stroke-width:1"
         d="M 48.530888,47.259131 A 21.552214,21.552214 0 0 0 26.978715,68.811304 21.552214,21.552214 0 0 0 45.847847,90.182609 V 111.24747 H 25.979293 v 6.10299 h 19.868554 v 27.26707 h 6.102987 v -27.26707 h 19.621541 l -0.03721,-6.61923 -0.08217,0.51624 H 55.771273 51.950834 V 90.08339 A 21.552214,21.552214 0 0 0 70.083061,68.811304 21.552214,21.552214 0 0 0 48.530888,47.259131 Z" />
      <circle
         style="fill:#fff0f0;fill-opacity:1;stroke:#000000;stroke-width:0.806187"
         id="path234-5"
         r="17.37512"
         cy="68.811386"
         cx="48.530876" />
    </g>
    <path
       id="path234-0"
       style="fill:#f7b2ec;fill-opacity:1;stroke:#000000;stroke-width:1"
       d="m 125.35529,87.40407 a 21.552214,21.552214 0 0 0 30.34434,-2.86591 21.552214,21.552214 0 0 0 -0.91403,-28.49459 l 13.42856,-16.229666 15.30796,12.665929 3.89057,-4.702121 -15.30796,-12.665929 17.38238,-21.008235 -4.70212,-3.89057 -17.38238,21.008235 -15.11765,-12.508462 -4.191,5.123585 0.39241,-0.345361 12.08217,9.996881 2.9435,2.435478 -13.49181,16.306114 a 21.552214,21.552214 0 0 0 -27.53085,4.830282 21.552214,21.552214 0 0 0 2.86591,30.34434 z" />
    <circle
       style="fill:#f7f7f7;fill-opacity:1;stroke:#000000;stroke-width:0.806187"
       id="path234-5-9"
       r="17.37512"
       cy="34.123028"
       cx="-152.30035"
       transform="rotate(-140.39537)" />
    <path
       id="path234-3"
       style="fill:#667fff;fill-opacity:1;stroke:#000000;stroke-width:1"
       d="m 92.826236,178.64439 a 21.552214,21.552214 0 0 0 -21.552173,21.55217 21.552214,21.552214 0 0 0 18.869132,21.37131 v 21.06486 H 70.274641 v 6.10299 h 19.868554 v 27.26707 h 6.102987 v -27.26707 h 19.621538 l -0.0372,-6.61923 -0.0822,0.51624 H 100.06662 96.246182 V 221.46865 A 21.552214,21.552214 0 0 0 114.37841,200.19656 21.552214,21.552214 0 0 0 92.826236,178.64439 Z" />
    <circle
       style="fill:#fff0f0;fill-opacity:1;stroke:#000000;stroke-width:0.806187"
       id="path234-5-7"
       r="17.37512"
       cy="200.19664"
       cx="92.826225" />
    <path
       style="fill:#667fff;fill-opacity:1;stroke:#000000;stroke-width:0.999998"
       id="path234-5-7-7-8"
       sodipodi:type="arc"
       sodipodi:cx="92.826225"
       sodipodi:cy="141.98853"
       sodipodi:rx="21.552183"
       sodipodi:ry="21.552183"
       sodipodi:start="4.2370757"
       sodipodi:end="0.19368427"
       sodipodi:arc-type="slice"
       d="m 82.963579,122.82541 a 21.552183,21.552183 0 0 1 22.812611,1.93538 21.552183,21.552183 0 0 1 8.19923,21.376 l -21.149195,-4.14826 z" />
    <path
       style="fill:#fff0f0;fill-opacity:1;stroke:#000000;stroke-width:0.806187"
       id="path234-5-7-7"
       sodipodi:type="arc"
       sodipodi:cx="92.826225"
       sodipodi:cy="141.98853"
       sodipodi:rx="17.37512"
       sodipodi:ry="17.37512"
       sodipodi:start="4.2426883"
       sodipodi:end="0.4381417"
       sodipodi:arc-type="slice"
       d="m 84.961909,126.49506 a 17.37512,17.37512 0 0 1 19.954991,3.01507 17.37512,17.37512 0 0 1 3.64322,19.84992 l -15.733895,-7.37152 z" />
    <g
       id="g5940">
      <path
         id="path234-0-0"
         style="fill:#f7b2ec;fill-opacity:1;stroke:#000000;stroke-width:1"
         d="m 95.692146,208.98873 a 21.552214,21.552214 0 0 0 30.344344,-2.86591 21.552214,21.552214 0 0 0 -0.91403,-28.49459 l 13.42855,-16.22967 15.30797,12.66593 3.89057,-4.70212 -15.30796,-12.66593 17.38238,-21.00823 -4.70212,-3.89057 -17.38238,21.00823 -15.11765,-12.50846 -4.191,5.12359 0.39241,-0.34536 12.08216,9.99688 2.94351,2.43547 -13.49181,16.30612 a 21.552214,21.552214 0 0 0 -27.530854,4.83028 21.552214,21.552214 0 0 0 2.86591,30.34434 z" />
      <circle
         style="fill:#f7f7f7;fill-opacity:1;stroke:#000000;stroke-width:0.806187"
         id="path234-5-9-9"
         r="17.37512"
         cy="-78.463135"
         cx="-206.95459"
         transform="rotate(-140.39537)" />
    </g>
  </g>
</svg>
